<svg xmlns="http://www.w3.org/2000/svg" width="32" height="32" viewBox="0 0 32 32">
  <rect width="32" height="32" rx="6" fill="#2563eb"/>
  <g transform="translate(6, 6)" stroke="white" stroke-width="1.5" stroke-linecap="round" stroke-linejoin="round" fill="none">
    <path d="M6 20V4c0-.6.4-1 1-1h6c.6 0 1 .4 1 1v16"/>
    <path d="M14 10h3c.6 0 1 .4 1 1v9"/>
    <path d="M2 20h18"/>
    <path d="M6 10H3c-.6 0-1 .4-1 1v9"/>
    <path d="M9 7v1"/>
    <path d="M11 7v1"/>
    <path d="M9 11v1"/>
    <path d="M11 11v1"/>
    <path d="M9 15v1"/>
    <path d="M11 15v1"/>
  </g>
</svg>
